<?xml version="1.0" encoding="UTF-8" standalone="no"?>
<svg width="591px" height="591px" viewBox="0 0 591 591" version="1.1" xmlns="http://www.w3.org/2000/svg" xmlns:xlink="http://www.w3.org/1999/xlink" xmlns:sketch="http://www.bohemiancoding.com/sketch/ns">
    <!-- Generator: Sketch 3.2.1 (9971) - http://www.bohemiancoding.com/sketch -->
    <title>plant</title>
    <desc>Created with Sketch.</desc>
    <defs></defs>
    <g id="Page-1" stroke="none" stroke-width="1" fill="none" fill-rule="evenodd" sketch:type="MSPage">
        <circle id="BG" fill="#0CB574" sketch:type="MSShapeGroup" cx="295.5" cy="295.5" r="295.5"></circle>
        <g id="Group" sketch:type="MSLayerGroup" transform="translate(133.000000, 38.000000)">
            <g transform="translate(35.000000, 81.000000)" fill="#FFFFFF" sketch:type="MSShapeGroup">
                <polygon id="Triangle-1" transform="translate(35.000000, 15.500000) scale(1, -1) rotate(-28.000000) translate(-35.000000, -15.500000) " points="35 4 46 27 24 27 "></polygon>
                <polygon id="Triangle-2" transform="translate(56.000000, 25.500000) scale(1, -1) rotate(-28.000000) translate(-56.000000, -25.500000) " points="56 14 67 37 45 37 "></polygon>
                <polygon id="Triangle-3" transform="translate(75.000000, 34.500000) scale(1, -1) rotate(-28.000000) translate(-75.000000, -34.500000) " points="75 23 86 46 64 46 "></polygon>
                <polygon id="Triangle-4" transform="translate(95.000000, 43.500000) scale(1, -1) rotate(-28.000000) translate(-95.000000, -43.500000) " points="95 32 106 55 84 55 "></polygon>
                <polygon id="Triangle-5" transform="translate(111.000000, 56.500000) scale(1, -1) rotate(-39.000000) translate(-111.000000, -56.500000) " points="111 45 122 68 100 68 "></polygon>
                <polygon id="Triangle-6" transform="translate(125.000000, 69.500000) scale(1, -1) rotate(-55.000000) translate(-125.000000, -69.500000) " points="125 58 136 81 114 81 "></polygon>
                <polygon id="Triangle-7" transform="translate(108.000000, 113.500000) scale(1, -1) rotate(-188.000000) translate(-108.000000, -113.500000) " points="108 102 119 125 97 125 "></polygon>
                <polygon id="Triangle-8" transform="translate(90.000000, 108.500000) scale(1, -1) rotate(-204.000000) translate(-90.000000, -108.500000) " points="90 97 101 120 79 120 "></polygon>
                <polygon id="Triangle-9" transform="translate(71.000000, 99.500000) scale(1, -1) rotate(-205.000000) translate(-71.000000, -99.500000) " points="71 88 82 111 60 111 "></polygon>
                <polygon id="Triangle-10" transform="translate(53.000000, 90.500000) scale(1, -1) rotate(-211.000000) translate(-53.000000, -90.500000) " points="53 79 64 102 42 102 "></polygon>
                <polygon id="Triangle-11" transform="translate(34.000000, 79.500000) scale(1, -1) rotate(-211.000000) translate(-34.000000, -79.500000) " points="34 68 45 91 23 91 "></polygon>
                <polygon id="Triangle-12" transform="translate(16.000000, 68.500000) scale(1, -1) rotate(-211.000000) translate(-16.000000, -68.500000) " points="16 57 27 80 5 80 "></polygon>
            </g>
            <path d="M31.6315097,194.783606 C33.3588412,198.122061 46.5161432,220.271323 62.3268222,236.408606 C76.2697402,250.639546 92.1255892,258.754545 106.158854,265.576582 C131.839265,278.060685 160.513947,279.994551 171.463541,279.994551 C239.118423,279.994551 293.963541,225.149433 293.963541,157.494551 C293.963541,89.8396694 251.783853,42.2992389 177.768228,34.8383014 C162.722432,33.3216521 140.931499,32.3706648 114.137798,42.3681055 C101.290448,47.1617928 88.5800148,60.8413634 76.6099013,72.0104309 C59.645885,87.8392068 32.4993376,101.216795 31.6315097,107.767989 C29.752156,121.955148 116.717323,113.854705 154.213543,139.076583 C175.720774,153.543448 171.463535,182.021594 171.463535,194.783606 C171.463535,238.720372 20.4460947,173.165292 31.6315097,194.783606 Z" id="Oval-2" fill="#FFFFFF" sketch:type="MSShapeGroup" transform="translate(162.501510, 156.944634) rotate(17.000000) translate(-162.501510, -156.944634) "></path>
            <path d="M175.5,270.5 C175.5,270.5 181.108477,311.783373 175.499999,338.554688 C169.856733,365.492055 152.98834,397.202691 150.390625,421.152344 C147.200249,450.566039 163.482668,503.179688 163.482668,503.179688" id="Line" stroke="#FFFFFF" stroke-width="20" stroke-linecap="square" sketch:type="MSShapeGroup"></path>
            <path d="M237.976318,405 L199.017985,516 L100.934651,516 L61.9763179,405 L237.976318,405 Z" id="Rectangle-1" fill="#FFFFFF" sketch:type="MSShapeGroup"></path>
        </g>
        <path d="M267.5,348.832031 C257.347418,347.404324 226.460938,357.125 226.460938,357.125 L244.027344,370.789063 C244.027344,370.789063 255.446476,379.693469 267.5,380.34375 C280.230858,381.030573 293.822014,373.399522 301.320312,370.789063 C315.917969,365.707032 278.680752,350.404324 267.5,348.832031 Z" id="Line" stroke="#FFFFFF" stroke-width="12" stroke-linecap="square" fill="#FFFFFF" sketch:type="MSShapeGroup"></path>
        <path d="M344.889703,381.827064 C334.737122,380.399357 303.850641,390.120033 303.850641,390.120033 L321.417047,403.784095 C321.417047,403.784095 332.836179,412.688502 344.889703,413.338783 C357.620561,414.025606 371.211717,406.394555 378.710016,403.784095 C393.307672,398.702064 356.070455,383.399357 344.889703,381.827064 Z" id="Line-2" stroke="#FFFFFF" stroke-width="12" stroke-linecap="square" fill="#FFFFFF" sketch:type="MSShapeGroup" transform="translate(341.280328, 397.533101) rotate(-178.000000) translate(-341.280328, -397.533101) "></path>
    </g>
</svg>